<?xml version="1.0" encoding="UTF-8" standalone="no"?>
<!-- Created with Inkscape (http://www.inkscape.org/) -->

<svg
   width="960"
   height="540"
   viewBox="0 0 960 540"
   version="1.1"
   id="svg1"
   inkscape:version="1.3.2 (091e20ef0f, 2023-11-25)"
   sodipodi:docname="four_trees.svg"
   xmlns:inkscape="http://www.inkscape.org/namespaces/inkscape"
   xmlns:sodipodi="http://sodipodi.sourceforge.net/DTD/sodipodi-0.dtd"
   xmlns="http://www.w3.org/2000/svg"
   xmlns:svg="http://www.w3.org/2000/svg">
  <sodipodi:namedview
     id="namedview1"
     pagecolor="#ffffff"
     bordercolor="#000000"
     borderopacity="0.25"
     inkscape:showpageshadow="2"
     inkscape:pageopacity="0.0"
     inkscape:pagecheckerboard="true"
     inkscape:deskcolor="#d1d1d1"
     inkscape:document-units="px"
     showguides="true"
     showgrid="false"
     inkscape:zoom="0.93303299"
     inkscape:cx="473.18798"
     inkscape:cy="302.776"
     inkscape:window-width="1920"
     inkscape:window-height="1007"
     inkscape:window-x="1920"
     inkscape:window-y="120"
     inkscape:window-maximized="1"
     inkscape:current-layer="g82">
    <inkscape:grid
       id="grid4"
       units="px"
       originx="0"
       originy="0"
       spacingx="1"
       spacingy="1"
       empcolor="#0099e5"
       empopacity="0.30196078"
       color="#0099e5"
       opacity="0.14901961"
       empspacing="5"
       dotted="true"
       gridanglex="30"
       gridanglez="30"
       visible="false" />
    <sodipodi:guide
       position="247.7351,580.52051"
       orientation="1,0"
       id="guide1"
       inkscape:locked="false" />
    <sodipodi:guide
       position="427.79592,582.00689"
       orientation="1,0"
       id="guide2"
       inkscape:locked="false" />
    <sodipodi:guide
       position="697.18131,577.64941"
       orientation="1,0"
       id="guide3"
       inkscape:locked="false" />
    <sodipodi:guide
       position="887.37165,616.16231"
       orientation="1,0"
       id="guide4"
       inkscape:locked="false" />
    <sodipodi:guide
       position="74.305091,565.84355"
       orientation="1,0"
       id="guide5"
       inkscape:locked="false" />
    <sodipodi:guide
       position="1017.2881,502.42048"
       orientation="0,-1"
       id="guide6"
       inkscape:locked="false" />
    <sodipodi:guide
       position="40.727392,341.72191"
       orientation="0,-1"
       id="guide7"
       inkscape:locked="false" />
  </sodipodi:namedview>
  <defs
     id="defs1" />
  <g
     inkscape:label="guides"
     inkscape:groupmode="layer"
     id="layer1"
     sodipodi:insensitive="true">
    <rect
       style="display:inline;fill:none;stroke:#808080;stroke-width:1.02302;stroke-dasharray:none;stroke-dashoffset:0;stroke-opacity:1"
       id="rect4"
       width="958.97815"
       height="538.97699"
       x="0.51144105"
       y="0.51144105"
       inkscape:label="bgguide"
       sodipodi:insensitive="true" />
  </g>
  <g
     inkscape:groupmode="layer"
     id="layer2"
     inkscape:label="background"
     style="display:inline"
     sodipodi:insensitive="true">
    <rect
       style="fill:#99c1f1;stroke:none;stroke-width:3.07032;stroke-linecap:round;stroke-dasharray:none;stroke-dashoffset:0;stroke-opacity:1"
       id="rect15"
       width="958.20532"
       height="311.53845"
       x="1.1336088"
       y="0"
       inkscape:label="sky" />
    <path
       id="rect14"
       style="fill:#57e389;stroke:none;stroke-width:3.18636;stroke-linecap:round;stroke-dasharray:none;stroke-dashoffset:0;stroke-opacity:1"
       d="m 627.63041,253.04104 c -21.46324,0.49766 -42.78529,2.84422 -63.56385,6.99542 -35.1201,7.13197 -68.14776,19.32163 -97.3197,35.91819 C 368.28954,261.78824 251.23189,265.34202 157.49122,305.34341 109.34835,290.8186 55.769189,283.14177 1.3100465,282.96577 L 0,475.90869 1.2903464,475.89654 1.1336088,540 H 959.33894 L 960,369.59213 h -0.0985 v -89.68901 l -0.56341,-1.05468 c -53.73623,2.83296 -105.26215,8.8384 -151.8334,17.69643 -51.82416,-29.6556 -115.22498,-44.98954 -179.87428,-43.50383 z"
       sodipodi:nodetypes="scccccccccccccss" />
    <g
       id="g14"
       transform="matrix(1.0028599,0,0,1.0384615,5.3949239,33.728746)"
       style="stroke:#2ec27e">
      <path
         style="fill:none;stroke:#2ec27e;stroke-width:3;stroke-linecap:round;stroke-dasharray:none;stroke-dashoffset:0;stroke-opacity:1"
         id="path5"
         sodipodi:type="arc"
         sodipodi:cx="320"
         sodipodi:cy="441.19196"
         sodipodi:rx="314.70004"
         sodipodi:ry="211.19197"
         sodipodi:start="4.1650089"
         sodipodi:end="5.1792951"
         sodipodi:arc-type="arc"
         d="m 156.21377,260.85703 a 314.70004,211.19197 0 0 1 305.44081,-8.25215"
         sodipodi:open="true" />
      <path
         style="fill:none;stroke:#2ec27e;stroke-width:3;stroke-linecap:round;stroke-dasharray:none;stroke-dashoffset:0;stroke-opacity:1"
         id="path10"
         sodipodi:type="arc"
         sodipodi:cx="629.65656"
         sodipodi:cy="422.42801"
         sodipodi:rx="283.83945"
         sodipodi:ry="211.26804"
         sodipodi:start="3.5649397"
         sodipodi:end="5.3564964"
         sodipodi:arc-type="arc"
         d="M 370.87473,335.63608 A 283.83945,211.26804 0 0 1 558.97412,217.81541 283.83945,211.26804 0 0 1 800.09787,253.49047"
         sodipodi:open="true" />
      <path
         style="fill:none;stroke:#2ec27e;stroke-width:3;stroke-linecap:round;stroke-dasharray:none;stroke-dashoffset:0;stroke-opacity:1"
         id="path6"
         sodipodi:type="arc"
         sodipodi:cx="-1.1811576"
         sodipodi:cy="425.86923"
         sodipodi:rx="335.29358"
         sodipodi:ry="185.79735"
         sodipodi:start="4.709572"
         sodipodi:end="5.7616189"
         sodipodi:arc-type="arc"
         d="M -2.1256718,240.07262 A 335.29358,185.79735 0 0 1 289.53172,333.29777"
         sodipodi:open="true" />
      <path
         style="fill:none;stroke:#2ec27e;stroke-width:3;stroke-linecap:round;stroke-dasharray:none;stroke-dashoffset:0;stroke-opacity:1"
         id="path9"
         sodipodi:type="arc"
         sodipodi:cx="-1020.2509"
         sodipodi:cy="363.93567"
         sodipodi:rx="426.22791"
         sodipodi:ry="129.60413"
         sodipodi:start="4.8781035"
         sodipodi:end="5.9292792"
         sodipodi:arc-type="arc"
         d="m -949.94159,236.10702 a 426.22791,129.60413 0 0 1 329.5036,82.91246"
         transform="scale(-1,1)"
         sodipodi:open="true" />
    </g>
  </g>
  <g
     inkscape:groupmode="layer"
     id="layer4"
     inkscape:label="trees"
     style="display:inline">
    <g
       inkscape:groupmode="layer"
       id="layer3"
       inkscape:label="tree1"
       transform="matrix(1.0034497,0,0,0.99999454,2.264078,0.01942978)">
      <g
         id="g76"
         inkscape:label="canopy1"
         transform="matrix(0.87185924,0,0,1,6.9224135,3.2981872)"
         style="stroke:none;stroke-width:3.21291;stroke-dasharray:none">
        <path
           id="path76"
           style="fill:#2ec27e;stroke:#26a269;stroke-linecap:round"
           d="M 170.51994,7.0363159 C 112.24332,7.0363795 65.000642,28.7777 65.000555,55.596863 c 3e-6,0.710329 0.05088,1.414292 0.11649,2.117187 -29.945464,13.820838 -50.117394,39.677855 -50.117394,69.32227 0,26.41391 16.010541,49.82984 40.681739,64.39843 6.354934,44.06172 64.04875,78.56442 134.31918,78.56446 35.34615,-2e-5 67.50185,-8.73834 91.55856,-23.02149 l 18.44119,2.5586 c 35.89809,-5.6e-4 64.99894,-27.9826 64.99894,-62.5 -0.002,-10.05619 -2.52684,-19.96353 -7.36125,-28.88086 15.30036,-15.00785 24.39317,-33.71017 24.39337,-53.99805 -4.7e-4,-49.407823 -53.84556,-89.460807 -120.26652,-89.460938 -9.35092,1.9e-5 -18.4385,0.823913 -27.17567,2.326172 -17.76611,-6.259136 -39.96656,-9.9863017 -64.06925,-9.9863281 z"
           sodipodi:nodetypes="cscscscccccscc" />
      </g>
      <g
         id="g31"
         inkscape:label="bark1">
        <path
           id="rect16"
           style="fill:#986a44;stroke:none;stroke-width:2.65647;stroke-linecap:round;stroke-dasharray:none;stroke-dashoffset:0;stroke-opacity:1"
           d="M 289.9997,162.5 202.56415,210.19141 189.9997,172.5 173.2204,214.44727 85.820011,172.5 l 78.105469,80 V 380 l -56.06836,25 16.06836,5 39.91016,-6.65234 -25.92579,34.29687 L 143.92548,440 188.66181,404.21094 193.92548,420 h 10 v -20 l 50,30 V 420 L 216.07392,383.3125 V 249.42969 Z" />
      </g>
    </g>
    <g
       inkscape:groupmode="layer"
       id="g42"
       inkscape:label="tree2"
       transform="matrix(1.0034497,0,0,0.99999454,-36.517346,-2.4805616)"
       style="display:inline">
      <g
         id="g35"
         inkscape:label="canopy2"
         transform="matrix(0.87185924,0,0,1,250.84759,2.0535328)"
         style="stroke:none;stroke-width:3.21291;stroke-dasharray:none">
        <path
           id="path75"
           style="fill:#2ec27e;stroke:#26a269;stroke-linecap:round"
           d="M 170.51994,7.0363159 C 112.24332,7.0363795 65.000642,28.7777 65.000555,55.596863 c 3e-6,0.710329 0.05088,1.414292 0.11649,2.117187 -29.945464,13.820838 -50.117394,39.677855 -50.117394,69.32227 0,26.41391 16.010541,49.82984 40.681739,64.39843 6.354934,44.06172 64.04875,78.56442 134.31918,78.56446 35.34615,-2e-5 67.50185,-8.73834 91.55856,-23.02149 l 18.44119,2.5586 c 35.89809,-5.6e-4 64.99894,-27.9826 64.99894,-62.5 -0.002,-10.05619 -2.52684,-19.96353 -7.36125,-28.88086 15.30036,-15.00785 24.39317,-33.71017 24.39337,-53.99805 -4.7e-4,-49.407823 -53.84556,-89.460807 -120.26652,-89.460938 -9.35092,1.9e-5 -18.4385,0.823913 -27.17567,2.326172 -17.76611,-6.259136 -39.96656,-9.9863017 -64.06925,-9.9863281 z"
           sodipodi:nodetypes="cscscscccccscc" />
      </g>
      <g
         id="g41"
         inkscape:label="bark2"
         transform="matrix(-1,0,0,1,609.74628,-1.249995)">
        <path
           id="rect35"
           style="fill:#986a44;stroke:none;stroke-width:2.65647;stroke-linecap:round;stroke-dasharray:none;stroke-dashoffset:0;stroke-opacity:1"
           d="m 290.00079,162.5 -73.92578,86.92969 V 383.3125 L 253.92462,420 v 10 l -50,-30 v 20 h -10 L 188.66095,404.21094 143.92462,440 137.91095,437.64453 163.83478,403.34766 123.92462,410 107.85821,405 163.92462,380 V 252.5 l -78.103515,-80 87.400395,41.94727 16.77929,-41.94727 12.56446,37.69141 z" />
      </g>
    </g>
    <g
       inkscape:groupmode="layer"
       id="g82"
       inkscape:label="tree4"
       transform="matrix(1.0034497,0,0,0.99999454,-36.621899,0.01942978)"
       style="display:inline">
      <g
         id="g80"
         inkscape:label="canopy4"
         transform="matrix(-0.87185924,0,0,1,985.39301,-0.1754478)"
         style="stroke:none;stroke-width:3.21291;stroke-dasharray:none">
        <path
           id="path79"
           style="fill:#2ec27e;stroke:#26a269;stroke-linecap:round"
           d="M 170.51994,7.0363159 C 112.24332,7.0363795 65.000642,28.7777 65.000555,55.596863 c 3e-6,0.710329 0.05088,1.414292 0.11649,2.117187 -29.945464,13.820838 -40.494343,38.509379 -40.494343,68.15379 0,26.41391 6.38749,50.99832 31.058688,65.56691 6.354934,44.06172 64.04875,78.56442 134.31918,78.56446 35.34615,-2e-5 67.50185,-8.73834 91.55856,-23.02149 l 18.44119,2.5586 c 35.89809,-5.6e-4 64.99894,-27.9826 64.99894,-62.5 -0.002,-10.05619 -2.52684,-19.96353 -7.36125,-28.88086 15.30036,-15.00785 24.39317,-33.71017 24.39337,-53.99805 -4.7e-4,-49.407823 -53.84556,-89.460807 -120.26652,-89.460938 -9.35092,1.9e-5 -18.4385,0.823913 -27.17567,2.326172 -17.76611,-6.259136 -39.96656,-9.9863017 -64.06925,-9.9863281 z"
           sodipodi:nodetypes="cscscscccccscc" />
      </g>
      <g
         id="g81"
         inkscape:label="bark4"
         transform="matrix(-1,0,0,1,992.31542,-3.473635)">
        <path
           id="path80"
           style="fill:#986a44;stroke:none;stroke-width:2.65647;stroke-linecap:round;stroke-dasharray:none;stroke-dashoffset:0;stroke-opacity:1"
           d="M 289.9997,162.5 202.56415,210.19141 189.9997,172.5 173.2204,214.44727 85.820011,172.5 l 78.105469,80 V 380 l -56.06836,25 16.06836,5 39.91016,-6.65234 -25.92579,34.29687 L 143.92548,440 188.66181,404.21094 193.92548,420 h 10 v -20 l 50,30 V 420 L 216.07392,383.3125 V 249.42969 Z" />
      </g>
    </g>
    <g
       inkscape:groupmode="layer"
       id="g79"
       inkscape:label="tree3"
       transform="matrix(1.0034497,0,0,0.99999454,-77.292517,-2.4805616)"
       style="display:inline">
      <g
         id="g77"
         inkscape:label="canopy3"
         transform="matrix(-0.87185924,0,0,1,820.55651,5.7981922)"
         style="stroke:none;stroke-width:3.21291;stroke-dasharray:none">
        <path
           id="path77"
           style="fill:#2ec27e;stroke:#26a269;stroke-linecap:round"
           d="M 170.51994,7.0363159 C 112.24332,7.0363795 65.000642,28.7777 65.000555,55.596863 c 3e-6,0.710329 0.05088,1.414292 0.11649,2.117187 -29.945464,13.820838 -50.117394,39.677855 -50.117394,69.32227 0,26.41391 16.010541,49.82984 40.681739,64.39843 6.354934,44.06172 64.04875,78.56442 134.31918,78.56446 35.34615,-2e-5 67.50185,-8.73834 91.55856,-23.02149 l 18.44119,2.5586 c 35.89809,-5.6e-4 64.99894,-27.9826 64.99894,-62.5 -0.002,-10.05619 -2.52684,-19.96353 -7.36125,-28.88086 15.30036,-15.00785 24.39317,-33.71017 24.39337,-53.99805 -4.7e-4,-49.407823 -53.84556,-89.460807 -120.26652,-89.460938 -9.35092,1.9e-5 -18.4385,0.823913 -27.17567,2.326172 -17.76611,-6.259136 -39.96656,-9.9863017 -64.06925,-9.9863281 z"
           sodipodi:nodetypes="cscscscccccscc" />
      </g>
      <g
         id="g78"
         inkscape:label="bark3"
         transform="translate(461.65782,2.4946644)">
        <path
           id="path78"
           style="fill:#986a44;stroke:none;stroke-width:2.65647;stroke-linecap:round;stroke-dasharray:none;stroke-dashoffset:0;stroke-opacity:1"
           d="m 290.00079,162.5 -73.92578,86.92969 V 383.3125 L 253.92462,420 v 10 l -50,-30 v 20 h -10 L 188.66095,404.21094 143.92462,440 137.91095,437.64453 163.83478,403.34766 123.92462,410 107.85821,405 163.92462,380 V 252.5 l -78.103515,-80 87.400395,41.94727 16.77929,-41.94727 12.56446,37.69141 z" />
      </g>
    </g>
  </g>
</svg>
